<svg width="16" height="16" viewBox="0 0 16 16" fill="context-fill" fill-opacity="context-fill-opacity" xmlns="http://www.w3.org/2000/svg"><path d="m2 3h2v7.58l2-2v-5.58l4.29 0.01c0.43 0 0.824 0.033 1.182 0.098l1.818-1.818c0.391-0.394 1.029-0.394 1.42 0 0.394 0.391 0.394 1.029 0 1.42l-12 12c-0.391 0.394-1.029 0.394-1.42 0-0.394-0.391-0.394-1.029 0-1.42l0.71-0.71zm6 2v1.58l1.58-1.58zm3.52 2.61c0.164-0.13 0.286-0.299 0.366-0.5l1.958-1.958c0.104 0.386 0.156 0.807 0.156 1.228 0 1.08-0.337 2.193-1.01 2.76-0.667 0.573-1.62 0.86-2.86 0.86h-1.133l2.195-2.196c0.123-0.053 0.233-0.118 0.328-0.194zm-3.52 5.39h-2v-1e-3l2-2.001z"></path></svg>
